<?xml version="1.0" encoding="UTF-8"?>
<svg version="1.1" xmlns="http://www.w3.org/2000/svg" width="512" height="512">
<path d="M0 0 C2.19503891 2.55792407 3.02805637 4.28379252 3.91699219 7.52416992 C4.23732422 8.6770752 4.55765625 9.82998047 4.88769531 11.01782227 C5.25918761 12.4529252 5.62806926 13.8887051 5.99511719 15.32495117 C6.22223389 16.19734436 6.44935059 17.06973755 6.68334961 17.96856689 C8.31027574 24.23483684 9.88065104 30.51389068 11.42382812 36.80126953 C12.24807472 40.14946504 13.08625987 43.49398383 13.92480469 46.83862305 C14.45430737 48.98619842 14.98298248 51.13397805 15.51074219 53.28198242 C15.76067932 54.27172562 16.01061646 55.26146881 16.26812744 56.28120422 C19.48700956 69.56875362 19.48700956 69.56875362 16.21386719 75.61572266 C12.27010104 79.68436215 6.83364552 80.4526778 1.49511719 81.67260742 C0.31486969 81.96165451 -0.86537781 82.2507016 -2.08139038 82.54850769 C-4.67403306 83.18016976 -7.26713834 83.80322619 -9.8649292 84.41271973 C-14.10274759 85.40718698 -18.33267172 86.43280419 -22.56201172 87.46264648 C-27.9454667 88.77131019 -33.33073144 90.07205107 -38.71823311 91.36395454 C-49.58435816 93.97056858 -60.43356623 96.6426668 -71.27832031 99.33666992 C-73.01187847 99.76710208 -74.74543969 100.19752194 -76.47900391 100.62792969 C-79.11037635 101.28129158 -81.74174106 101.93468445 -84.37306976 102.5882225 C-116.81823258 110.64443774 -149.29284235 118.57988451 -181.77529907 126.48413086 C-212.50710575 133.96296366 -243.21568461 141.53416808 -273.91534138 149.14384747 C-277.4980488 150.03182932 -281.08089034 150.91926946 -284.66373253 151.80670738 C-287.03932217 152.3954266 -289.41467088 152.98510907 -291.78999329 153.5749054 C-302.57410842 156.24853838 -313.36999024 158.87260654 -324.1683197 161.48809814 C-325.70979183 161.86160224 -327.25126 162.23512265 -328.79272413 162.60865974 C-332.53006485 163.51427816 -336.26745882 164.41967649 -340.00488281 165.32495117 C-339.23445249 165.32554826 -338.46402217 165.32614535 -337.67024547 165.32676053 C-292.03468141 165.36263415 -246.39918362 165.41924179 -200.7636808 165.50287212 C-195.28735974 165.51288989 -189.81103837 165.52273397 -184.3347168 165.5324707 C-182.69932254 165.53538276 -182.69932254 165.53538276 -181.03089001 165.53835365 C-163.36448735 165.56939681 -145.69809768 165.58636076 -128.03167287 165.5981454 C-109.91186272 165.61054496 -91.79212093 165.63801932 -73.67235392 165.67956424 C-62.48641749 165.70473386 -51.30059438 165.71806593 -40.11462923 165.71638075 C-32.44983789 165.71635105 -24.7851622 165.7309295 -17.1204159 165.75711545 C-12.69451683 165.77180102 -8.26885495 165.77993061 -3.84293556 165.77075386 C0.2068511 165.76249881 4.25616009 165.77253324 8.3058757 165.79728779 C9.77296997 165.80299626 11.24010916 165.80191773 12.70719018 165.79346362 C14.69796071 165.78297225 16.68881903 165.79935801 18.67953777 165.81714249 C19.78642254 165.81866137 20.8933073 165.82018025 22.03373402 165.82174516 C25.68581681 166.44231667 27.35628837 167.77682846 29.99511719 170.32495117 C31.23480392 172.80432464 31.12384921 174.44819647 31.12933826 177.22273827 C31.13379611 178.26433865 31.13825395 179.30593903 31.14284688 180.37910306 C31.14257034 182.10901312 31.14257034 182.10901312 31.14228821 183.87387085 C31.1459649 185.09217862 31.14964158 186.31048639 31.15342969 187.56571257 C31.16256918 190.9585122 31.16716902 194.35126341 31.169819 197.74407077 C31.17371767 201.39938534 31.18329663 205.05468584 31.19203186 208.70999146 C31.21181354 217.54577646 31.22186679 226.38156263 31.23075965 235.21736425 C31.23514168 239.37892541 31.24050889 243.54048529 31.24574852 247.70204544 C31.2627661 261.53899306 31.2772583 275.37593987 31.28449726 289.21289635 C31.28640716 292.80542375 31.28832749 296.39795114 31.2902832 299.99047852 C31.29076694 300.88338422 31.29125068 301.77628992 31.29174908 302.69625337 C31.30004187 317.14721232 31.32536369 331.59808829 31.35786388 346.04901104 C31.39096528 360.88845681 31.408949 375.72786048 31.4121415 390.56734335 C31.41430426 398.89779591 31.42301802 407.22812763 31.44860268 415.55854416 C31.4703522 422.65670245 31.47833944 429.75471057 31.46863589 436.8528984 C31.4641028 440.47164251 31.46591882 444.09007709 31.48539734 447.70877838 C31.50638146 451.64137751 31.49600582 455.57355454 31.48286438 459.50619507 C31.49931825 461.2026443 31.49931825 461.2026443 31.51610452 462.93336523 C31.40958794 476.18669471 26.78508052 487.65800627 17.99902344 497.57885742 C9.62396191 505.67731142 -1.09031022 510.441934 -12.69488525 510.45917225 C-13.70690723 510.46270059 -13.70690723 510.46270059 -14.7393741 510.46630022 C-17.0105103 510.47298144 -19.28158917 510.47253226 -21.55273438 510.47212219 C-23.19343052 510.47542137 -24.83412584 510.47914706 -26.47482014 510.48326367 C-30.99184455 510.4932858 -35.50885568 510.49700082 -40.02588964 510.49965298 C-44.89453907 510.50355545 -49.76317797 510.51313389 -54.63182068 510.52186584 C-66.39449486 510.5416328 -78.15716991 510.55169717 -89.91985655 510.56059363 C-95.45915502 510.56497652 -100.99845253 510.57034336 -106.53775024 510.5755825 C-124.9521922 510.59259569 -143.36663355 510.60708954 -161.78108215 510.61433125 C-166.56027222 510.61624114 -171.33946229 510.61816147 -176.11865234 510.62011719 C-177.30649791 510.62060093 -178.49434347 510.62108467 -179.71818435 510.62158307 C-198.95746905 510.6298821 -218.19669155 510.6552165 -237.43594909 510.68769787 C-257.18875168 510.7207743 -276.94152267 510.73878057 -296.6943531 510.74197549 C-307.78467795 510.74414013 -318.87491211 510.75288214 -329.96520996 510.77843666 C-339.41105876 510.80015168 -348.85679485 510.80819013 -358.30266577 510.79846988 C-363.12035224 510.79392741 -367.93780621 510.79580836 -372.75546074 510.81523132 C-377.17117064 510.83287965 -381.58647871 510.83185175 -386.00219297 510.81633403 C-387.59447509 510.81396048 -389.18678515 510.81826832 -390.7790246 510.83016268 C-406.81902521 510.94250404 -418.07025872 507.32342799 -430.03613281 496.48510742 C-437.09179848 489.16640159 -442.16271446 478.61236183 -442.10444164 468.36923695 C-442.1012823 467.3653395 -442.09812296 466.36144205 -442.09486789 465.32712346 C-442.08629632 464.22593496 -442.07772475 463.12474645 -442.06889343 461.9901886 C-442.06395349 460.81825665 -442.05901354 459.6463247 -442.0539239 458.43887967 C-442.03949441 455.18306605 -442.02066073 451.92731 -442.00026476 448.67152941 C-441.97948944 445.15788368 -441.96476483 441.64421383 -441.94989014 438.13053894 C-441.94361974 436.66161928 -441.93734341 435.19269965 -441.93106139 433.72378004 C-441.92632286 432.6124693 -441.92632286 432.6124693 -441.9214886 431.47870784 C-441.91140662 429.17232248 -441.90065457 426.86594106 -441.88974798 424.55955946 C-441.8371141 413.27500136 -441.80754942 401.99052276 -441.79145813 390.70585632 C-441.79025993 389.8865889 -441.78906173 389.06732148 -441.78782722 388.22322778 C-441.77684132 380.60640276 -441.76736256 372.98957615 -441.75882089 365.37274802 C-441.75287852 360.14498181 -441.7461027 354.91721722 -441.73852539 349.68945312 C-441.73727816 348.82144485 -441.73603093 347.95343658 -441.7347459 347.05912503 C-441.71334046 333.13637089 -441.64562905 319.21421206 -441.56068458 305.29171775 C-441.47414502 290.91406127 -441.44319103 276.53697768 -441.45928127 262.15906876 C-441.46672115 254.12113763 -441.45085337 246.0848663 -441.37003136 238.04729652 C-440.99719533 199.60903655 -443.56037257 165.12855308 -454.91016686 128.13079917 C-456.55608892 122.64777008 -457.49552924 118.0576687 -457.00488281 112.32495117 C-454.44093115 107.69663005 -452.2481607 106.1332553 -447.23071289 104.58422852 C-445.25094137 104.08668626 -443.26482147 103.61401329 -441.27441406 103.16088867 C-440.17488403 102.89134872 -439.075354 102.62180878 -437.94250488 102.34410095 C-434.23890006 101.44158141 -430.52845111 100.57122916 -426.81738281 99.69995117 C-424.14653584 99.05785878 -421.47744667 98.40860025 -418.80834961 97.75927734 C-412.98884237 96.34673782 -407.16591565 94.94911681 -401.34082031 93.55981445 C-391.762381 91.27379411 -382.19537948 88.94179512 -372.62988281 86.60229492 C-370.96461805 86.19515706 -369.29935009 85.7880323 -367.63407898 85.38092041 C-365.10152497 84.7617772 -362.56897468 84.14261887 -360.03645611 83.52333069 C-353.96542506 82.03912554 -347.89327079 80.55957776 -341.82055664 79.08227539 C-317.70256451 73.21435063 -293.59967753 67.28735836 -269.50488281 61.32495117 C-242.43419969 54.62663002 -215.3509708 47.98224351 -188.25488281 41.38745117 C-161.47050948 34.86844406 -134.69820808 28.30249932 -107.93826294 21.68389893 C-103.40235906 20.56211024 -98.86612931 19.44164636 -94.32976055 18.3217392 C-89.9739698 17.24640116 -85.61830086 16.17057034 -81.26269531 15.09448242 C-80.42463663 14.88743431 -79.58657795 14.6803862 -78.72312355 14.4670639 C-69.08468463 12.08505144 -59.44991718 9.68934187 -49.82157898 7.26681519 C-45.19074905 6.1025134 -40.5579746 4.94608831 -35.92483521 3.79101562 C-32.94010979 3.04320011 -29.95872951 2.28302416 -26.97729492 1.5222168 C-25.22234777 1.08464609 -23.46723305 0.64774662 -21.71191406 0.21166992 C-20.9619516 0.01594894 -20.21198914 -0.17977203 -19.43930054 -0.38142395 C-12.96239304 -1.96394581 -6.02787492 -3.36019254 0 0 Z " fill="#000000" transform="translate(469.0048828125,1.675048828125)"/>
<path d="M0 0 C14.52 0 29.04 0 44 0 C45.98 3.96 45.98 3.96 48 8 C51.46539556 9.73269778 55.2193951 9.60651415 59 9 C62.0002937 6.23049812 63.16117684 3.67764632 65 0 C77.21 0 89.42 0 102 0 C103.98 3.96 103.98 3.96 106 8 C115.28559218 12.64279609 126.62550546 10.61575946 137 11 C137 63.47 137 115.94 137 170 C21.17 170 -94.66 170 -214 170 C-214 117.2 -214 64.4 -214 10 C-199.01980469 9.93941406 -184.03960937 9.87882812 -168.60546875 9.81640625 C-159.13997119 9.77593228 -149.67447578 9.73521012 -140.20898438 9.69335938 C-125.17050206 9.62691472 -110.13202017 9.56151075 -95.09350586 9.50268555 C-84.14269289 9.45984529 -73.19190083 9.41356768 -62.24112016 9.36312145 C-56.44006749 9.33651926 -50.63901896 9.31166612 -44.83794212 9.29092598 C-39.38221073 9.2713663 -33.92651916 9.24722448 -28.47082329 9.21950912 C-26.46445691 9.21013515 -24.45808178 9.20246112 -22.45170212 9.19658089 C-19.72017347 9.18832562 -16.9887416 9.17405051 -14.25724792 9.15821838 C-13.4566692 9.15724028 -12.65609048 9.15626217 -11.8312518 9.15525442 C-8.62592887 9.13123403 -6.06314658 9.02104886 -3 8 C-1.81608777 5.62374655 -1.81608777 5.62374655 -1 3 C-0.67 2.01 -0.34 1.02 0 0 Z " fill="#FCFCFC" transform="translate(302,281)"/>
<path d="M0 0 C142.89 0 285.78 0 433 0 C433.0825 35.908125 433.165 71.81625 433.25 108.8125 C433.28641602 120.1456958 433.32283203 131.4788916 433.36035156 143.15551758 C433.37841797 157.00720215 433.37841797 157.00720215 433.3817749 163.4941864 C433.38549771 168.01961632 433.4004725 172.54485807 433.42230225 177.07023621 C433.44980699 182.84890958 433.45795201 188.62731065 433.4522891 194.40604341 C433.45347267 196.52290318 433.46136414 198.6397728 433.47686052 200.75657618 C433.55893393 212.5174269 433.54837271 222.5276734 427.25 232.875 C420.92820624 238.84558299 414.0171977 242.2468835 405.28509808 242.25726891 C404.61988314 242.26077498 403.95466821 242.26428105 403.26929525 242.26789337 C401.03635507 242.2772102 398.80367553 242.27228341 396.57072449 242.26742554 C394.95518685 242.27116166 393.33965101 242.27576303 391.72411805 242.28115618 C387.28142209 242.29340632 382.83880131 242.29312335 378.3960923 242.29076743 C373.60592285 242.29035977 368.81577768 242.30139353 364.02561951 242.31088257 C354.63953233 242.32750455 345.25347027 242.33299266 335.86736961 242.33410732 C328.23883453 242.33505723 320.61030774 242.33916462 312.98177528 242.34550858 C291.35952599 242.36312421 269.73729655 242.37234694 248.11504003 242.37084763 C246.36607983 242.37072776 246.36607983 242.37072776 244.58178711 242.37060547 C242.83069461 242.37048283 242.83069461 242.37048283 241.0442265 242.37035771 C222.12239176 242.3695447 203.20063661 242.38868516 184.27882489 242.4168822 C164.85596914 242.4455978 145.43315223 242.45942323 126.01027471 242.45769465 C115.10342093 242.45703029 104.19665058 242.46254259 93.2898159 242.48405075 C84.00380251 242.50224512 74.71791036 242.50662423 65.43188687 242.4930319 C60.69367768 242.48649346 55.95570122 242.48641665 51.21751404 242.5037384 C46.87914405 242.51943546 42.54119197 242.51664006 38.20283238 242.49917014 C36.63420738 242.49609281 35.06555146 242.49976023 33.49696293 242.51089029 C25.42908124 242.56434079 18.93646468 242.52910274 12 238 C10.96875 237.34 9.9375 236.68 8.875 236 C2.40256587 230.04064882 -0.2529709 222.39282755 -0.66419542 213.83599448 C-0.76795279 209.00559385 -0.73380561 204.18143479 -0.68115234 199.35058594 C-0.67931195 197.13640532 -0.68011935 194.92222118 -0.68334389 192.70804214 C-0.68469239 186.80569876 -0.65004711 180.90409275 -0.60768127 175.00192261 C-0.57338204 169.4532451 -0.57189561 163.90474232 -0.56762695 158.35595703 C-0.53620672 142.15387459 -0.45243921 125.95192784 -0.375 109.75 C-0.189375 55.42375 -0.189375 55.42375 0 0 Z M255 31 C251.8509288 36.18010841 251.8509288 36.18010841 252 39 C248.22010184 40.25996605 244.68121871 40.15340656 240.74275208 40.15821838 C239.46483883 40.16562535 239.46483883 40.16562535 238.16110915 40.17318195 C235.29596605 40.18858476 232.4308454 40.19692511 229.56567383 40.20532227 C227.51599428 40.2148986 225.46631671 40.22490854 223.41664124 40.23532104 C217.84262916 40.26240266 212.26860859 40.28339459 206.69456697 40.30332303 C200.8729155 40.3251625 195.05129031 40.35256115 189.22966003 40.37937927 C178.20124209 40.42933376 167.17280958 40.47426236 156.14436311 40.51740164 C141.24467716 40.57597279 126.34502577 40.64227445 111.44537067 40.70815182 C87.96360371 40.81176961 64.48180721 40.90503012 41 41 C41 93.8 41 146.6 41 201 C156.83 201 272.66 201 392 201 C392 148.53 392 96.06 392 42 C383.09 41.67 374.18 41.34 365 41 C359.25839406 37.55503644 359.07939549 36.80041899 357 31 C351.82241114 30.80184395 346.64703814 30.65690111 341.46655273 30.56054688 C339.70574497 30.52037759 337.94520306 30.46582716 336.18530273 30.39648438 C326.42639837 29.54786643 326.42639837 29.54786643 317.74365234 32.78125 C316.46109341 34.8488513 315.67399841 36.67282723 315 39 C313.43058802 40.56941198 311.85865006 40.2449847 309.6875 40.3125 C306.42271513 40.27104241 305.30916331 40.21403614 302.5625 38.3125 C301 36 301 36 299 31 C284.48 31 269.96 31 255 31 Z " fill="#FAE379" transform="translate(47,250)"/>
<path d="M0 0 C0.90558407 -0.00523668 1.81116814 -0.01047336 2.74419415 -0.01586872 C5.79118702 -0.03091999 8.83801273 -0.031575 11.88504028 -0.03224182 C14.06453741 -0.03985983 16.24403183 -0.0482867 18.42352295 -0.0574646 C24.35324912 -0.07945115 30.28292372 -0.08821403 36.21268606 -0.09329104 C39.91487971 -0.09692954 43.61705973 -0.10316693 47.3192482 -0.11029243 C60.8954889 -0.13606831 74.47168598 -0.14822076 88.04794933 -0.15192956 C98.0933359 -0.15525168 108.13854504 -0.17787155 118.18386841 -0.21290588 C129.84631838 -0.25344383 141.50863234 -0.27684007 153.17115605 -0.27762848 C159.34569513 -0.27842287 165.51997502 -0.28723617 171.69445419 -0.31562614 C177.50082571 -0.3417257 183.30672165 -0.34405719 189.11312485 -0.3279705 C191.24606357 -0.32614958 193.37902913 -0.33290434 195.51190948 -0.34878922 C198.42045471 -0.36913293 201.32731763 -0.35876678 204.23583984 -0.34057617 C205.50660978 -0.36037612 205.50660978 -0.36037612 206.80305183 -0.38057607 C211.13463211 -0.31855494 212.75267821 -0.11613825 216.26646614 2.66999722 C218.30375964 5.35162514 218.928156 6.46541636 218.86990356 9.77415466 C218.88279419 10.50634216 218.89568481 11.23852966 218.90896606 11.99290466 C217.87902088 15.53106928 216.10348268 16.98412005 213.24490356 19.27415466 C210.2197972 19.75586568 207.76562671 19.93074225 204.74714661 19.87542725 C203.46667008 19.88183543 203.46667008 19.88183543 202.16032535 19.88837308 C199.30085805 19.89660677 196.44285867 19.86911215 193.58352661 19.84178162 C191.53355443 19.84037123 189.48357972 19.84116294 187.43360901 19.84399414 C181.867746 19.84543005 176.30242061 19.81601155 170.73668265 19.78112435 C164.92042493 19.74989019 159.10415519 19.74693242 153.28782654 19.74099731 C142.27350822 19.72545028 131.25943773 19.68440996 120.24522859 19.63424987 C105.36195863 19.56793938 90.478621 19.54092884 75.59524059 19.51173878 C52.14494258 19.46470889 28.69516757 19.36510199 5.24490356 19.27415466 C5.24490356 72.07415466 5.24490356 124.87415466 5.24490356 179.27415466 C121.07490356 179.27415466 236.90490356 179.27415466 356.24490356 179.27415466 C356.24490356 126.80415466 356.24490356 74.33415466 356.24490356 20.27415466 C347.33490356 20.27415466 338.42490356 20.27415466 329.24490356 20.27415466 C323.24490356 16.27415466 323.24490356 16.27415466 322.24490356 14.27415466 C321.97146606 12.28587341 321.97146606 12.28587341 321.86990356 9.96165466 C321.82091919 9.20239685 321.77193481 8.44313904 321.72146606 7.66087341 C322.54205792 3.9192195 324.2420375 2.61059142 327.24490356 0.27415466 C330.48538042 -0.46118047 333.65155397 -0.42719289 336.96365356 -0.38990784 C337.89915039 -0.39469147 338.83464722 -0.3994751 339.79849243 -0.40440369 C341.77202033 -0.40779894 343.74560475 -0.39862273 345.71902466 -0.37770081 C348.73544012 -0.35092933 351.74813473 -0.3774607 354.76443481 -0.40943909 C356.68501592 -0.40613492 358.60559472 -0.39972855 360.52615356 -0.38990784 C361.42523438 -0.40002899 362.32431519 -0.41015015 363.25064087 -0.420578 C364.09501709 -0.4048172 364.93939331 -0.3890564 365.80935669 -0.37281799 C366.54706299 -0.36884003 367.28476929 -0.36486206 368.04483032 -0.36076355 C371.50514389 0.63784689 372.98859094 2.5113038 375.24490356 5.27415466 C375.73225939 8.04094147 375.91089674 10.18923247 375.8596344 12.94775391 C375.86531766 13.71282806 375.87100091 14.47790221 375.87685639 15.26616043 C375.88976065 17.82610303 375.86697025 20.38446473 375.8442688 22.94432068 C375.84613286 24.78091259 375.85016949 26.6175034 375.85621643 28.4540863 C375.86619767 33.43965374 375.84501047 38.42465336 375.81773639 43.41013837 C375.79391958 48.62529237 375.79685144 53.84043485 375.7964325 59.05563354 C375.79180346 67.81273522 375.7681541 76.56961957 375.73196411 85.3266449 C375.69021708 95.45537972 375.67264853 105.58391884 375.66934437 115.71273476 C375.66574638 126.49099118 375.64687406 137.26917705 375.62222409 148.04740405 C375.61599193 151.15574405 375.61235785 154.26407868 375.60918999 157.37242317 C375.60329405 162.253722 375.58699384 167.13488064 375.56258583 172.01612091 C375.55513848 173.80921025 375.55107343 175.60231724 375.55060577 177.39542198 C375.54935018 179.83960609 375.5358216 182.28341924 375.51905823 184.72753906 C375.52147331 185.44008443 375.5238884 186.1526298 375.52637666 186.88676745 C375.48756964 190.49129316 375.45656191 193.34459952 373.24490356 196.27415466 C369.33543103 199.11707834 366.58506176 199.65011973 361.78991032 199.6544714 C360.47738193 199.66291134 359.16485354 199.67135128 357.81255156 199.68004698 C356.35755176 199.67425182 354.90255308 199.66817079 353.44755554 199.66183472 C351.90071235 199.66600711 350.35387221 199.6714841 348.80703777 199.67815453 C344.55426719 199.69264035 340.30168989 199.68835466 336.04890859 199.68098772 C331.46327149 199.6762661 326.87767682 199.68875696 322.29205322 199.69900513 C313.30767965 199.71621814 304.32337594 199.71702797 295.33899016 199.71179222 C288.03795152 199.70775401 280.73693357 199.70918993 273.43589592 199.71454048 C272.39754524 199.7152889 271.35919456 199.71603733 270.28937871 199.71680843 C268.18010577 199.71833987 266.07083282 199.71987822 263.96155988 199.72142339 C244.17266732 199.73515745 224.38381426 199.72970435 204.59492259 199.71823818 C186.4832807 199.70830445 168.37174094 199.72124731 150.2601148 199.74517237 C131.6712129 199.76954326 113.08235861 199.77917622 94.49344105 199.77251965 C84.05390671 199.769023 73.61445095 199.77128883 63.17492867 199.78877068 C54.28813162 199.80346752 45.40146848 199.80416111 36.51467413 199.78669976 C31.97924039 199.77816666 27.44404612 199.77609637 22.90862465 199.79135132 C18.75785424 199.80513983 14.60752977 199.800511 10.45678555 199.78111208 C8.95414774 199.77733375 7.4514747 199.78032659 5.9488681 199.79072373 C3.90785992 199.80384356 1.86673147 199.78995696 -0.17426205 199.77472591 C-1.30843435 199.77461858 -2.44260666 199.77451124 -3.61114782 199.77440065 C-8.03521165 199.07047051 -11.38507728 197.07447523 -14.11380291 193.48869991 C-15.04285043 190.2804689 -15.03364338 187.15179812 -15.01579285 183.84143066 C-15.01961839 183.09016716 -15.02344394 182.33890365 -15.02738541 181.56487459 C-15.03770884 179.04610327 -15.03372455 176.52756018 -15.02975464 174.0087738 C-15.03410147 172.20350941 -15.03928452 170.39824686 -15.04524231 168.59298706 C-15.05864645 163.68806521 -15.05920942 158.78322034 -15.05667901 153.87828374 C-15.05561029 149.78521237 -15.06049012 145.69215664 -15.06528443 141.59908861 C-15.07638445 131.94397181 -15.0768142 122.2888939 -15.07077026 112.6337738 C-15.06472861 102.66922564 -15.07704524 92.7048186 -15.09834033 82.74029452 C-15.11594577 74.18818036 -15.12195937 65.63611116 -15.11870259 57.08397955 C-15.11688795 51.97481191 -15.11954396 46.86574496 -15.13341713 41.7565937 C-15.14597369 36.95244959 -15.14407197 32.1485258 -15.13100624 27.34438515 C-15.12863619 25.58073096 -15.13139044 23.81706137 -15.13962936 22.05342484 C-15.15006245 19.64664701 -15.14202428 17.24061317 -15.12931824 14.8338623 C-15.13669252 14.1352205 -15.14406681 13.4365787 -15.15166456 12.71676594 C-15.10370779 8.40169322 -14.40303392 5.69924671 -11.75509644 2.27415466 C-7.84234192 -0.33434835 -4.54002209 -0.01287459 0 0 Z " fill="#030201" transform="translate(82.75509643554688,271.72584533691406)"/>
<path d="M0 0 C0.9590625 0.57556641 1.918125 1.15113281 2.90625 1.74414062 C5.00986302 2.9911688 7.1140513 4.23722695 9.21875 5.48242188 C10.85070312 6.45042725 10.85070312 6.45042725 12.515625 7.43798828 C15.98483404 9.47784722 19.47182108 11.48285125 22.96875 13.47460938 C23.55068115 13.80680984 24.1326123 14.13901031 24.73217773 14.48127747 C27.54380719 16.08622965 30.35769335 17.68692591 33.17578125 19.28051758 C50.26072948 29.05197971 50.26072948 29.05197971 55.15625 37.61914062 C56.68336019 43.34580383 56.82106193 49.12704623 54.40625 54.61914062 C49.1049107 63.46061225 39.78051118 68.09165874 31.03125 72.93164062 C29.17192171 73.97311632 27.31430064 75.01759674 25.45666504 76.06208801 C24.18509834 76.77661489 22.91287684 77.4899777 21.64001465 78.20219421 C17.25697458 80.65759613 12.90559686 83.16250642 8.5703125 85.70117188 C7.98408112 86.04360931 7.39784973 86.38604675 6.79385376 86.73886108 C4.00376172 88.36888761 1.2166669 90.00366718 -1.56591797 91.64648438 C-17.75954147 101.08258907 -17.75954147 101.08258907 -27.09375 99.43164062 C-33.9120191 96.99331922 -38.58387094 92.73688766 -42.09375 86.43164062 C-43.32915819 82.72504397 -43.2413373 79.1022194 -43.27075195 75.21972656 C-43.27732315 74.50047501 -43.28389435 73.78122345 -43.29066467 73.04017639 C-43.31033634 70.66545496 -43.32204697 68.29079661 -43.33203125 65.91601562 C-43.33610678 65.10222694 -43.3401823 64.28843826 -43.34438133 63.44998932 C-43.36521667 59.14195512 -43.37952892 54.83395253 -43.38891602 50.52587891 C-43.3999709 46.08962585 -43.43436714 41.65387568 -43.47408772 37.21780014 C-43.50030541 33.79470931 -43.50861243 30.37173738 -43.51219749 26.94855499 C-43.5170507 25.31397356 -43.52862846 23.67939698 -43.54723549 22.04491425 C-43.73759648 4.21397159 -43.73759648 4.21397159 -37.12890625 -2.59179688 C-23.31794471 -12.05435666 -13.60232232 -8.03339401 0 0 Z " fill="#030202" transform="translate(271.09375,325.568359375)"/>
<path d="M0 0 C9.78934695 -1.25398461 19.58233695 -2.08971871 29.4375 -2.5625 C30.1625473 -2.59744946 30.8875946 -2.63239891 31.63461304 -2.66840744 C50.05059224 -3.45121269 64.77535463 -2.27642526 78.87185478 10.44059944 C88.54521633 19.49514277 97.60643053 29.9885076 105 41 C105 41.33 105 41.66 105 42 C96.84585832 42.25622156 88.69342925 42.45097719 80.53624249 42.56993389 C76.74723171 42.6270654 72.96099684 42.70437125 69.17358398 42.82983398 C65.50988394 42.95042237 61.84883102 43.01533494 58.18329811 43.04364967 C56.79363145 43.06379155 55.40409079 43.10312864 54.01556969 43.16303062 C47.99600132 43.41210625 42.55520035 43.59444848 37.75808716 39.60029602 C34.94129616 36.92950046 32.48814155 33.9766803 30 31 C28.70481027 29.80896911 27.38798785 28.63994789 26.03125 27.51953125 C21.11934732 23.31559413 16.56539222 18.7514488 11.99707031 14.18237305 C10.47997975 12.66750914 8.95500263 11.16087408 7.4296875 9.65429688 C6.46305507 8.690592 5.49689103 7.72641702 4.53125 6.76171875 C3.66048828 5.89506592 2.78972656 5.02841309 1.89257812 4.13549805 C0 2 0 2 0 0 Z " fill="#6CB1C4" transform="translate(296,188)"/>
<path d="M0 0 C0.99135201 0.5907431 0.99135201 0.5907431 2.00273132 1.19342041 C4.13512326 2.46681783 6.26099219 3.75066869 8.38671875 5.03515625 C9.84021326 5.90647567 11.29398954 6.77732523 12.74804688 7.64770508 C22.2597141 13.35201385 31.73131045 19.12003893 41.07421875 25.09765625 C40.74421875 25.75765625 40.41421875 26.41765625 40.07421875 27.09765625 C38.06591797 27.74853516 38.06591797 27.74853516 35.37890625 28.32421875 C34.36723389 28.54770996 33.35556152 28.77120117 32.31323242 29.00146484 C31.20310791 29.23945801 30.0929834 29.47745117 28.94921875 29.72265625 C21.13878798 31.44972431 13.3625616 33.24244162 5.625 35.26953125 C4.92624756 35.45248749 4.22749512 35.63544373 3.50756836 35.82394409 C0.74308925 36.55032999 -2.02040923 37.280024 -4.78106689 38.02081299 C-6.70951604 38.5382736 -8.63988306 39.04857046 -10.5703125 39.55859375 C-11.67737549 39.85556152 -12.78443848 40.1525293 -13.92504883 40.45849609 C-19.86302461 41.72329315 -22.61000311 41.06077446 -27.80078125 37.8359375 C-28.35904602 37.49337921 -28.91731079 37.15082092 -29.49249268 36.79788208 C-31.31024398 35.67902189 -33.11787832 34.54484742 -34.92578125 33.41015625 C-36.17614023 32.63645222 -37.42712218 31.86375409 -38.67871094 31.09204102 C-41.83203235 29.14456715 -44.97752088 27.18481403 -48.12133789 25.2220459 C-50.88926125 23.49728998 -53.66533224 21.78581553 -56.44140625 20.07421875 C-61.27590311 17.09222627 -66.10382069 14.09987429 -70.92578125 11.09765625 C-68.3837936 8.5556686 -66.61740398 8.3932346 -63.1171875 7.6171875 C-61.90732178 7.34326172 -60.69745605 7.06933594 -59.45092773 6.78710938 C-58.13005698 6.49474012 -56.80917455 6.20242362 -55.48828125 5.91015625 C-52.76049006 5.29701501 -50.03420214 4.67745624 -47.30859375 4.0546875 C-46.26665108 3.81699142 -46.26665108 3.81699142 -45.20365906 3.57449341 C-36.89215288 1.65866932 -28.66062495 -0.56344655 -20.44555664 -2.85620117 C-19.3961792 -3.13955322 -18.34680176 -3.42290527 -17.265625 -3.71484375 C-16.35159912 -3.96878906 -15.43757324 -4.22273438 -14.49584961 -4.484375 C-8.74573405 -5.41951301 -4.78418144 -2.90638858 0 0 Z " fill="#6CB1C4" transform="translate(186.92578125,94.90234375)"/>
<path d="M0 0 C1.33405884 0.82540283 1.33405884 0.82540283 2.69506836 1.66748047 C3.64776611 2.27221191 4.60046387 2.87694336 5.58203125 3.5 C6.57275635 4.11633301 7.56348145 4.73266602 8.58422852 5.36767578 C10.7208511 6.69701903 12.8547866 8.03068873 14.98632812 9.36816406 C18.54191269 11.59704952 22.11491339 13.79705114 25.69140625 15.9921875 C26.28983841 16.35950989 26.88827057 16.72683228 27.50483704 17.10528564 C28.69448234 17.83538696 29.88416391 18.56542919 31.07388306 19.29541016 C35.51782784 22.02421179 39.9556287 24.76300731 44.39453125 27.5 C41.57694902 29.01073782 38.91019262 30.00291677 35.81640625 30.796875 C34.91446533 31.03051758 34.01252441 31.26416016 33.08325195 31.50488281 C32.11347412 31.75077148 31.14369629 31.99666016 30.14453125 32.25 C29.13543701 32.5087793 28.12634277 32.76755859 27.08666992 33.03417969 C24.94882299 33.58105159 22.81037792 34.12558973 20.67138672 34.66796875 C17.43271094 35.49030574 14.19675086 36.32273055 10.9609375 37.15625 C8.87645916 37.68811597 6.79182825 38.21938447 4.70703125 38.75 C3.75344727 38.99588867 2.79986328 39.24177734 1.81738281 39.49511719 C-16.77984543 44.18159285 -16.77984543 44.18159285 -22.15234375 42.17578125 C-23.209375 41.39589844 -24.26640625 40.61601563 -25.35546875 39.8125 C-26.67841735 38.88321181 -28.00717275 37.96216596 -29.33984375 37.046875 C-30.12294922 36.50353516 -30.90605469 35.96019531 -31.71289062 35.40039062 C-35.31644723 33.0328953 -39.01684661 30.86539474 -42.74609375 28.703125 C-43.83093048 28.07213142 -43.83093048 28.07213142 -44.93768311 27.4283905 C-47.90243805 25.70578173 -50.86845971 23.98559741 -53.84216309 22.2784729 C-55.9568359 21.06164557 -58.06296218 19.83110866 -60.16796875 18.59765625 C-60.81719299 18.22920593 -61.46641724 17.86075562 -62.13531494 17.48114014 C-63.921875 16.42602539 -63.921875 16.42602539 -66.60546875 14.5 C-66.60546875 13.51 -66.60546875 12.52 -66.60546875 11.5 C-65.83807373 11.32460693 -65.07067871 11.14921387 -64.2800293 10.96850586 C-60.61675928 10.12878546 -56.95455779 9.28451381 -53.29296875 8.4375 C-52.62451935 8.28304413 -51.95606995 8.12858826 -51.2673645 7.9694519 C-40.16280922 5.39706981 -29.12716143 2.62204964 -18.12573242 -0.36547852 C-16.55142456 -0.78591431 -16.55142456 -0.78591431 -14.9453125 -1.21484375 C-14.03128662 -1.46355225 -13.11726074 -1.71226074 -12.17553711 -1.96850586 C-7.18592495 -3.00036543 -4.33547115 -2.72228311 0 0 Z " fill="#6CB1C4" transform="translate(343.60546875,53.5)"/>
<path d="M0 0 C9.78934695 -1.25398461 19.58233695 -2.08971871 29.4375 -2.5625 C30.1625473 -2.59744946 30.8875946 -2.63239891 31.63461304 -2.66840744 C50.05059224 -3.45121269 64.77535463 -2.27642526 78.87185478 10.44059944 C88.54521633 19.49514277 97.60643053 29.9885076 105 41 C105 41.33 105 41.66 105 42 C95.21065305 43.25398461 85.41766305 44.08971871 75.5625 44.5625 C74.8374527 44.59744946 74.1124054 44.63239891 73.36538696 44.66840744 C54.94940776 45.45121269 40.22464537 44.27642526 26.12814522 31.55940056 C16.45478367 22.50485723 7.39356947 12.0114924 0 1 C0 0.67 0 0.34 0 0 Z " fill="#6DB2C5" transform="translate(131,188)"/>
<path d="M0 0 C5.11227414 0.85204569 7.16751273 1.37262625 11.359375 3.8515625 C12.38111816 4.4489624 13.40286133 5.0463623 14.45556641 5.66186523 C15.54272949 6.30969971 16.62989258 6.95753418 17.75 7.625 C19.4724011 8.63566409 21.19481159 9.64631256 22.91775513 10.65605164 C24.71793488 11.71249479 26.51578276 12.7728293 28.31347656 13.83349609 C33.81317618 17.07260656 39.34800045 20.25088684 44.88049316 23.43353271 C47.66387067 25.03537222 50.44512524 26.64088832 53.2265625 28.24609375 C54.15033691 28.77904053 55.07411133 29.3119873 56.02587891 29.86108398 C56.67733887 30.23692627 57.32879883 30.61276855 58 31 C58 32.32 58 33.64 58 35 C55.35751274 36.52451188 52.71502086 38.04901576 50.07250977 39.57348633 C47.75521388 40.91043198 45.43798224 42.24748828 43.12084961 43.5847168 C37.55440915 46.79692775 31.98742014 50.00816586 26.41723633 53.21388245 C24.61765849 54.24961643 22.81831537 55.28575699 21.01904297 56.32202148 C18.74379467 57.63224181 16.46809035 58.94167061 14.19189453 60.25024414 C12.64477783 61.14151001 12.64477783 61.14151001 11.06640625 62.05078125 C10.15834229 62.57325439 9.25027832 63.09572754 8.31469727 63.6340332 C6.50873799 64.69977966 4.74478871 65.83680752 3 67 C2.01 67 1.02 67 0 67 C0 44.89 0 22.78 0 0 Z " fill="#FD5C5C" transform="translate(248,338)"/>
<path d="M0 0 C14.77662984 -2.83735993 33.46176469 -6.19558927 47.0737915 1.80712891 C54.54402195 7.22537897 60.99671307 13.67934576 67.25 20.4375 C67.70260571 20.9257362 68.15521141 21.4139724 68.62153244 21.91700363 C85 39.68158151 85 39.68158151 85 42 C70.22337016 44.83735993 51.53823531 48.19558927 37.9262085 40.19287109 C30.45597805 34.77462103 24.00328693 28.32065424 17.75 21.5625 C17.29739429 21.0742638 16.84478859 20.5860276 16.37846756 20.08299637 C0 2.31841849 0 2.31841849 0 0 Z " fill="#FCFCFC" transform="translate(388,188)"/>
<path d="M0 0 C14.77662984 -2.83735993 33.46176469 -6.19558927 47.0737915 1.80712891 C54.54402195 7.22537897 60.99671307 13.67934576 67.25 20.4375 C67.70260571 20.9257362 68.15521141 21.4139724 68.62153244 21.91700363 C85 39.68158151 85 39.68158151 85 42 C70.22337016 44.83735993 51.53823531 48.19558927 37.9262085 40.19287109 C30.45597805 34.77462103 24.00328693 28.32065424 17.75 21.5625 C17.29739429 21.0742638 16.84478859 20.5860276 16.37846756 20.08299637 C0 2.31841849 0 2.31841849 0 0 Z " fill="#FBFBFB" transform="translate(223,188)"/>
<path d="M0 0 C14.77662984 -2.83735993 33.46176469 -6.19558927 47.0737915 1.80712891 C54.54402195 7.22537897 60.99671307 13.67934576 67.25 20.4375 C67.70260571 20.9257362 68.15521141 21.4139724 68.62153244 21.91700363 C85 39.68158151 85 39.68158151 85 42 C70.22337016 44.83735993 51.53823531 48.19558927 37.9262085 40.19287109 C30.45597805 34.77462103 24.00328693 28.32065424 17.75 21.5625 C17.29739429 21.0742638 16.84478859 20.5860276 16.37846756 20.08299637 C0 2.31841849 0 2.31841849 0 0 Z " fill="#FBFBFB" transform="translate(59,188)"/>
<path d="M0 0 C0.58738953 0.34387756 1.17477905 0.68775513 1.77996826 1.04205322 C3.68857755 2.16196231 5.59248645 3.28958156 7.49609375 4.41796875 C8.80423472 5.18879857 10.11242179 5.95955016 11.4206543 6.73022461 C21.72288014 12.81643391 31.88392752 19.1101054 41.93359375 25.60546875 C39.02433934 28.51472316 35.49491158 28.88753837 31.6015625 29.8046875 C30.35842033 30.10364677 30.35842033 30.10364677 29.09016418 30.40864563 C27.33499075 30.82826839 25.57891175 31.24411853 23.82202148 31.65649414 C21.13915077 32.28871361 18.46124725 32.93947491 15.78320312 33.59179688 C14.07709307 33.99723227 12.37072062 34.40156538 10.6640625 34.8046875 C9.46537788 35.09831429 9.46537788 35.09831429 8.24247742 35.39787292 C2.82971075 36.6456604 -0.62860337 36.88522444 -5.6875 34.22949219 C-6.61691406 33.6471582 -7.54632813 33.06482422 -8.50390625 32.46484375 C-9.55465332 31.81193359 -10.60540039 31.15902344 -11.68798828 30.48632812 C-12.80286621 29.78314453 -13.91774414 29.07996094 -15.06640625 28.35546875 C-16.22203644 27.63403298 -17.37812855 26.91333665 -18.53466797 26.19335938 C-20.89229242 24.72437326 -23.24741566 23.25150082 -25.60058594 21.77539062 C-30.78215684 18.52728486 -35.98845524 15.319163 -41.19140625 12.10546875 C-44.15033477 10.27309504 -47.10850536 8.43950076 -50.06640625 6.60546875 C-47.59150375 4.13056625 -46.00408539 3.95512561 -42.60546875 3.203125 C-41.49300781 2.95240234 -40.38054687 2.70167969 -39.234375 2.44335938 C-38.06519531 2.18748047 -36.89601562 1.93160156 -35.69140625 1.66796875 C-33.41251358 1.15996018 -31.13386613 0.6508503 -28.85546875 0.140625 C-27.73043945 -0.10800293 -26.60541016 -0.35663086 -25.44628906 -0.61279297 C-21.13403739 -1.61018027 -16.86729792 -2.75876055 -12.60302734 -3.94360352 C-7.50485209 -4.84989126 -4.34478632 -2.55324292 0 0 Z " fill="#FBFBFB" transform="translate(256.06640625,77.39453125)"/>
<path d="M0 0 C1.05888428 0.62124756 2.11776855 1.24249512 3.20874023 1.88256836 C6.76246315 3.99591357 10.28970484 6.14824601 13.8125 8.3125 C15.00563798 9.04137816 16.1989966 9.76989528 17.39257812 10.49804688 C25.27469095 15.31083257 33.13697553 20.15611496 41 25 C38.05992985 27.94007015 34.42685407 28.38816685 30.5 29.375 C29.23796753 29.69718506 29.23796753 29.69718506 27.95043945 30.02587891 C25.30288724 30.69486413 22.6520947 31.34927483 20 32 C19.1548584 32.21011719 18.3097168 32.42023438 17.43896484 32.63671875 C15.0251399 33.23129889 12.60767662 33.8068858 10.1875 34.375 C9.08728516 34.64449463 9.08728516 34.64449463 7.96484375 34.91943359 C0.61701847 36.58800225 -3.85225939 35.43191223 -10.18359375 31.5 C-10.75666763 31.14810104 -11.32974152 30.79620209 -11.92018127 30.43363953 C-13.7650401 29.29811257 -15.60125301 28.14939029 -17.4375 27 C-18.70189752 26.21757357 -19.96687357 25.43608128 -21.23242188 24.65551758 C-23.10685953 23.49896222 -24.98072598 22.3415688 -26.85214233 21.18013 C-32.61373523 17.60522447 -38.45105429 14.16937528 -44.3125 10.76171875 C-46.90622372 9.06147253 -48.90790722 7.27816834 -51 5 C-44.36473324 3.22893923 -37.71958437 1.50088795 -31.06591797 -0.19970703 C-28.30491919 -0.9204073 -25.5610132 -1.68459351 -22.81640625 -2.46484375 C-21.27380934 -2.87380101 -19.73086219 -3.28144037 -18.1875 -3.6875 C-17.50316895 -3.89665039 -16.81883789 -4.10580078 -16.11376953 -4.32128906 C-9.63470502 -5.9438119 -5.51183073 -3.30152462 0 0 Z " fill="#FBFBFB" transform="translate(97,117)"/>
<path d="M0 0 C2.04267115 1.27001003 4.08564954 2.53952601 6.12890625 3.80859375 C7.18094238 4.46585449 8.23297852 5.12311523 9.31689453 5.80029297 C12.57937458 7.82296189 15.86112424 9.80964197 19.15234375 11.78515625 C20.20558838 12.41848877 21.25883301 13.05182129 22.34399414 13.7043457 C24.38182936 14.92839778 26.42134255 16.1496613 28.46264648 17.36791992 C29.83851929 18.19900269 29.83851929 18.19900269 31.2421875 19.046875 C32.05413574 19.53381836 32.86608398 20.02076172 33.70263672 20.52246094 C35.5625 21.8125 35.5625 21.8125 36.5625 23.8125 C30.94215412 25.26702118 25.31882992 26.70915367 19.69238281 28.13989258 C17.77875227 28.62835829 15.86598003 29.12019944 13.95410156 29.61547852 C11.20596437 30.32676948 8.45496995 31.02586754 5.703125 31.72265625 C4.84881897 31.94655533 3.99451294 32.17045441 3.11431885 32.40113831 C2.31379089 32.60142136 1.51326294 32.80170441 0.68847656 33.00805664 C-0.01323669 33.18792618 -0.71494995 33.36779572 -1.43792725 33.55311584 C-5.45717678 34.07449205 -8.34845593 32.44394843 -11.7265625 30.43359375 C-12.99765869 29.68082153 -12.99765869 29.68082153 -14.29443359 28.9128418 C-15.20789551 28.364104 -16.12135742 27.81536621 -17.0625 27.25 C-18.0107666 26.68514893 -18.9590332 26.12029785 -19.93603516 25.53833008 C-31.84390235 18.41847001 -43.64391135 11.11955091 -55.4375 3.8125 C-55.1075 3.1525 -54.7775 2.4925 -54.4375 1.8125 C-51.91235352 0.97460938 -51.91235352 0.97460938 -48.56640625 0.15625 C-47.35146484 -0.14410156 -46.13652344 -0.44445313 -44.88476562 -0.75390625 C-43.60279297 -1.06199219 -42.32082031 -1.37007812 -41 -1.6875 C-39.75283203 -1.99558594 -38.50566406 -2.30367187 -37.22070312 -2.62109375 C-33.63139479 -3.50003105 -30.03683385 -4.35066132 -26.4375 -5.1875 C-25.47054199 -5.41824219 -24.50358398 -5.64898437 -23.50732422 -5.88671875 C-13.55235293 -8.11095976 -8.41933977 -5.32151089 0 0 Z " fill="#FBFBFB" transform="translate(421.4375,41.1875)"/>
<path d="M0 0 C4.27527531 1.28534083 7.82337798 2.91332347 11.6171875 5.2578125 C12.63554688 5.88300781 13.65390625 6.50820312 14.703125 7.15234375 C16.27320313 8.12880859 16.27320313 8.12880859 17.875 9.125 C18.94492187 9.78371094 20.01484375 10.44242188 21.1171875 11.12109375 C23.74819964 12.74198516 26.37561007 14.36841634 29 16 C26.37466039 18.14107856 24.30083874 19.42130157 20.99609375 20.16796875 C20.25552734 20.33876953 19.51496094 20.50957031 18.75195312 20.68554688 C17.98818359 20.85119141 17.22441406 21.01683594 16.4375 21.1875 C15.28604492 21.45336914 15.28604492 21.45336914 14.11132812 21.72460938 C11.02000032 22.42265114 8.17855253 23 5 23 C4.15854044 19.91882573 3.32826938 16.83474379 2.5 13.75 C2.26152344 12.87730469 2.02304687 12.00460938 1.77734375 11.10546875 C1.55175781 10.26113281 1.32617188 9.41679687 1.09375 8.546875 C0.88427734 7.77182617 0.67480469 6.99677734 0.45898438 6.19824219 C0 4 0 4 0 0 Z " fill="#69ABBD" transform="translate(39,143)"/>
<path d="M0 0 C3.0625 2 3.0625 2 5 5 C5.73301898 9.61801955 5.71565523 12.58960049 3.0625 16.5 C-0.5145404 19.42003298 -2.33554105 19.85371888 -6.83984375 19.5078125 C-10.57700553 18.62927537 -11.96994762 17.20879247 -14 14 C-15.03945854 9.24941677 -14.669717 6.05858493 -12.0625 1.9375 C-7.94608077 -0.66676523 -4.7460093 -1.04704003 0 0 Z " fill="#050403" transform="translate(361,272)"/>
<path d="M0 0 C7.88862073 6.76167491 7.88862073 6.76167491 11.40234375 10.26953125 C12.51899414 11.38424805 12.51899414 11.38424805 13.65820312 12.52148438 C14.41037109 13.27751953 15.16253906 14.03355469 15.9375 14.8125 C16.71673828 15.58787109 17.49597656 16.36324219 18.29882812 17.16210938 C19.03423828 17.89880859 19.76964844 18.63550781 20.52734375 19.39453125 C21.19499756 20.06331299 21.86265137 20.73209473 22.55053711 21.42114258 C24 23 24 23 24 24 C16.08 24 8.16 24 0 24 C0 16.08 0 8.16 0 0 Z " fill="#6DB2C5" transform="translate(47,206)"/>
<path d="M0 0 C6.6 0 13.2 0 20 0 C20 6.6 20 13.2 20 20 C12.11132592 13.23827936 12.11132592 13.23827936 9.47265625 10.60546875 C8.90869141 10.04279297 8.34472656 9.48011719 7.76367188 8.90039062 C7.20228516 8.33513672 6.64089844 7.76988281 6.0625 7.1875 C5.47404297 6.60291016 4.88558594 6.01832031 4.27929688 5.41601562 C0 1.12677846 0 1.12677846 0 0 Z " fill="#67A9BB" transform="translate(460,188)"/>
<path d="M0 0 C1.32 6.27 2.64 12.54 4 19 C-1.8791256 16.19205942 -7.55391166 13.18324253 -13.125 9.8125 C-14.79949219 8.80123047 -14.79949219 8.80123047 -16.5078125 7.76953125 C-17.33023437 7.18558594 -18.15265625 6.60164063 -19 6 C-19 5.34 -19 4.68 -19 4 C-16.39688008 3.32900016 -13.79264602 2.66304662 -11.1875 2 C-10.44951172 1.80921875 -9.71152344 1.6184375 -8.95117188 1.421875 C-5.89464659 0.64737086 -3.16626522 0 0 0 Z " fill="#68ABBD" transform="translate(455,22)"/>
</svg>
